<svg xmlns="http://www.w3.org/2000/svg" xmlns:xlink="http://www.w3.org/1999/xlink" width="144" height="28" viewBox="0 0 144 28"><defs><path id="a" fill= "white" d="M234.19 48.14v19.72h4.2c6.15 0 10.45-4.05 10.45-9.86 0-5.8-4.3-9.86-10.45-9.86zm14.65.07a13.27 13.27 0 0 1 4.14 9.79c0 3.8-1.47 7.28-4.14 9.79a15.11 15.11 0 0 1-10.45 3.91h-8.26V44.3h8.26c4.06 0 7.77 1.39 10.45 3.91zm8.23-4.21a2.64 2.64 0 0 1 2.65 2.69 2.6 2.6 0 0 1-.82 1.97l-.09.08h-3.48l-.1-.08a2.64 2.64 0 0 1-.81-1.97 2.64 2.64 0 0 1 2.65-2.69zm-1.94 8.22H259V71.7h-3.87zm28.99 3.57h-5.23V71.7h-3.88V55.79h-7.31V71.7h-3.87V55.79h-3.24v-3.57h2.77a5 5 0 0 1-1-3c0-2.9 2.39-4.92 5.82-4.92h4.76v3.58h-4.24c-.76 0-2.54.2-2.54 2.05 0 1.48 1.19 2.22 2.3 2.29h6.09a4.95 4.95 0 0 1-1.01-3c0-2.9 2.4-4.92 5.82-4.92h4.76v3.58h-4.23c-.77 0-2.55.2-2.55 2.05 0 1.48 1.19 2.22 2.3 2.29h4.48zm17.7 7.28h-15.25a5.95 5.95 0 0 0 5.97 5.24c1.97 0 3.9-.79 5.27-2.17l.24-.23 2.49 2.72-.2.22c-1.91 2-4.76 3.15-7.8 3.15a9.8 9.8 0 0 1-10-10.04c0-5.63 4.3-10.04 9.77-10.04 5.7 0 9.43 4.25 9.51 10.83zm-9.69-7.54a5.56 5.56 0 0 0-5.35 4.07h10.69c-.53-2.52-2.58-4.11-5.34-4.07zm21.15.59a6.43 6.43 0 0 0-1.72-.21 4.58 4.58 0 0 0-4.39 2.72V71.7h-3.88V52.22h3.88v1.71a6.71 6.71 0 0 1 4.87-1.9c.48 0 .95.04 1.38.12l.26.04v4.05zm19.27 6.95H317.3a5.95 5.95 0 0 0 5.97 5.24 7.5 7.5 0 0 0 5.27-2.17l.23-.23 2.5 2.72-.21.22c-1.91 2-4.75 3.15-7.79 3.15a9.8 9.8 0 0 1-10-10.04c0-5.63 4.29-10.04 9.77-10.04 5.7 0 9.43 4.25 9.51 10.83zm-9.69-7.54a5.55 5.55 0 0 0-5.35 4.07h10.69c-.53-2.52-2.58-4.11-5.34-4.07zm20.55-3.61c4.54 0 7.59 3.2 7.59 7.96V71.7h-3.88V60.07c0-2.67-1.77-4.47-4.42-4.47a4.68 4.68 0 0 0-4.81 3.65V71.7h-3.87V52.22h3.87v1.64c1.66-1.59 3.87-1.94 5.52-1.94zm14.82 13.51c0 1.91.71 2.69 2.47 2.69h2.84v3.58h-3.18c-3.87 0-6.01-2.06-6.01-5.78V55.79h-2.94l-.87-3.57h3.81v-3.91l3.88-1.94v5.85H364l-.87 3.57h-4.9zm-52.32-20.97l1.74 1.71 1.74-1.71v3.53h-.62v-2.17l-1.12 1.11-1.13-1.11v2.17h-.61zm-2.13.72h-.91v-.57h2.47v.57h-.93v2.81h-.63zm-80.8 8.77a2.99 2.99 0 1 1 .01-5.97 2.99 2.99 0 0 1-.01 5.97zm0 8.1a2.99 2.99 0 1 1 0 5.98 2.99 2.99 0 0 1 0-5.98z"/></defs><g transform="translate(-220 -44)"><use fill="#ff5a61" xlink:href="#a"/></g></svg>
